<svg xmlns="http://www.w3.org/2000/svg" width="1653" height="1293" style="cursor: move;"><g><path class="link" marker-end="" d="M666.5,451.5, 847.5,554" style="stroke-width: 0.72; stroke-opacity: 0.85; stroke: rgb(80, 80, 80);"></path><path class="link" marker-end="" d="M666.5,451.5, 847.5,595" style="stroke-width: 0.72; stroke-opacity: 0.85; stroke: rgb(80, 80, 80);"></path><path class="link" marker-end="" d="M666.5,451.5, 847.5,636" style="stroke-width: 0.72; stroke-opacity: 0.85; stroke: rgb(80, 80, 80);"></path><path class="link" marker-end="" d="M666.5,451.5, 847.5,677" style="stroke-width: 0.72; stroke-opacity: 0.85; stroke: rgb(80, 80, 80);"></path><path class="link" marker-end="" d="M666.5,451.5, 847.5,718" style="stroke-width: 0.72; stroke-opacity: 0.85; stroke: rgb(80, 80, 80);"></path><path class="link" marker-end="" d="M666.5,492.5, 847.5,554" style="stroke-width: 0.72; stroke-opacity: 0.85; stroke: rgb(80, 80, 80);"></path><path class="link" marker-end="" d="M666.5,492.5, 847.5,595" style="stroke-width: 0.72; stroke-opacity: 0.85; stroke: rgb(80, 80, 80);"></path><path class="link" marker-end="" d="M666.5,492.5, 847.5,636" style="stroke-width: 0.72; stroke-opacity: 0.85; stroke: rgb(80, 80, 80);"></path><path class="link" marker-end="" d="M666.5,492.5, 847.5,677" style="stroke-width: 0.72; stroke-opacity: 0.85; stroke: rgb(80, 80, 80);"></path><path class="link" marker-end="" d="M666.5,492.5, 847.5,718" style="stroke-width: 0.72; stroke-opacity: 0.85; stroke: rgb(80, 80, 80);"></path><path class="link" marker-end="" d="M666.5,533.5, 847.5,554" style="stroke-width: 0.72; stroke-opacity: 0.85; stroke: rgb(80, 80, 80);"></path><path class="link" marker-end="" d="M666.5,533.5, 847.5,595" style="stroke-width: 0.72; stroke-opacity: 0.85; stroke: rgb(80, 80, 80);"></path><path class="link" marker-end="" d="M666.5,533.5, 847.5,636" style="stroke-width: 0.72; stroke-opacity: 0.85; stroke: rgb(80, 80, 80);"></path><path class="link" marker-end="" d="M666.5,533.5, 847.5,677" style="stroke-width: 0.72; stroke-opacity: 0.85; stroke: rgb(80, 80, 80);"></path><path class="link" marker-end="" d="M666.5,533.5, 847.5,718" style="stroke-width: 0.72; stroke-opacity: 0.85; stroke: rgb(80, 80, 80);"></path><path class="link" marker-end="" d="M666.5,574.5, 847.5,554" style="stroke-width: 0.72; stroke-opacity: 0.85; stroke: rgb(80, 80, 80);"></path><path class="link" marker-end="" d="M666.5,574.5, 847.5,595" style="stroke-width: 0.72; stroke-opacity: 0.85; stroke: rgb(80, 80, 80);"></path><path class="link" marker-end="" d="M666.5,574.5, 847.5,636" style="stroke-width: 0.72; stroke-opacity: 0.85; stroke: rgb(80, 80, 80);"></path><path class="link" marker-end="" d="M666.5,574.5, 847.5,677" style="stroke-width: 0.72; stroke-opacity: 0.85; stroke: rgb(80, 80, 80);"></path><path class="link" marker-end="" d="M666.5,574.5, 847.5,718" style="stroke-width: 0.72; stroke-opacity: 0.85; stroke: rgb(80, 80, 80);"></path><path class="link" marker-end="" d="M666.5,615.5, 847.5,554" style="stroke-width: 0.72; stroke-opacity: 0.85; stroke: rgb(80, 80, 80);"></path><path class="link" marker-end="" d="M666.5,615.5, 847.5,595" style="stroke-width: 0.72; stroke-opacity: 0.85; stroke: rgb(80, 80, 80);"></path><path class="link" marker-end="" d="M666.5,615.5, 847.5,636" style="stroke-width: 0.72; stroke-opacity: 0.85; stroke: rgb(80, 80, 80);"></path><path class="link" marker-end="" d="M666.5,615.5, 847.5,677" style="stroke-width: 0.72; stroke-opacity: 0.85; stroke: rgb(80, 80, 80);"></path><path class="link" marker-end="" d="M666.5,615.5, 847.5,718" style="stroke-width: 0.72; stroke-opacity: 0.85; stroke: rgb(80, 80, 80);"></path><path class="link" marker-end="" d="M666.5,656.5, 847.5,554" style="stroke-width: 0.72; stroke-opacity: 0.85; stroke: rgb(80, 80, 80);"></path><path class="link" marker-end="" d="M666.5,656.5, 847.5,595" style="stroke-width: 0.72; stroke-opacity: 0.85; stroke: rgb(80, 80, 80);"></path><path class="link" marker-end="" d="M666.5,656.5, 847.5,636" style="stroke-width: 0.72; stroke-opacity: 0.85; stroke: rgb(80, 80, 80);"></path><path class="link" marker-end="" d="M666.5,656.5, 847.5,677" style="stroke-width: 0.72; stroke-opacity: 0.85; stroke: rgb(80, 80, 80);"></path><path class="link" marker-end="" d="M666.5,656.5, 847.5,718" style="stroke-width: 0.72; stroke-opacity: 0.85; stroke: rgb(80, 80, 80);"></path><path class="link" marker-end="" d="M666.5,697.5, 847.5,554" style="stroke-width: 0.72; stroke-opacity: 0.85; stroke: rgb(80, 80, 80);"></path><path class="link" marker-end="" d="M666.5,697.5, 847.5,595" style="stroke-width: 0.72; stroke-opacity: 0.85; stroke: rgb(80, 80, 80);"></path><path class="link" marker-end="" d="M666.5,697.5, 847.5,636" style="stroke-width: 0.72; stroke-opacity: 0.85; stroke: rgb(80, 80, 80);"></path><path class="link" marker-end="" d="M666.5,697.5, 847.5,677" style="stroke-width: 0.72; stroke-opacity: 0.85; stroke: rgb(80, 80, 80);"></path><path class="link" marker-end="" d="M666.5,697.5, 847.5,718" style="stroke-width: 0.72; stroke-opacity: 0.85; stroke: rgb(80, 80, 80);"></path><path class="link" marker-end="" d="M666.5,738.5, 847.5,554" style="stroke-width: 0.72; stroke-opacity: 0.85; stroke: rgb(80, 80, 80);"></path><path class="link" marker-end="" d="M666.5,738.5, 847.5,595" style="stroke-width: 0.72; stroke-opacity: 0.85; stroke: rgb(80, 80, 80);"></path><path class="link" marker-end="" d="M666.5,738.5, 847.5,636" style="stroke-width: 0.72; stroke-opacity: 0.85; stroke: rgb(80, 80, 80);"></path><path class="link" marker-end="" d="M666.5,738.5, 847.5,677" style="stroke-width: 0.72; stroke-opacity: 0.85; stroke: rgb(80, 80, 80);"></path><path class="link" marker-end="" d="M666.5,738.5, 847.5,718" style="stroke-width: 0.72; stroke-opacity: 0.85; stroke: rgb(80, 80, 80);"></path><path class="link" marker-end="" d="M666.5,779.5, 847.5,554" style="stroke-width: 0.72; stroke-opacity: 0.85; stroke: rgb(80, 80, 80);"></path><path class="link" marker-end="" d="M666.5,779.5, 847.5,595" style="stroke-width: 0.72; stroke-opacity: 0.85; stroke: rgb(80, 80, 80);"></path><path class="link" marker-end="" d="M666.5,779.5, 847.5,636" style="stroke-width: 0.72; stroke-opacity: 0.85; stroke: rgb(80, 80, 80);"></path><path class="link" marker-end="" d="M666.5,779.5, 847.5,677" style="stroke-width: 0.72; stroke-opacity: 0.85; stroke: rgb(80, 80, 80);"></path><path class="link" marker-end="" d="M666.5,779.5, 847.5,718" style="stroke-width: 0.72; stroke-opacity: 0.85; stroke: rgb(80, 80, 80);"></path><path class="link" marker-end="" d="M666.5,820.5, 847.5,554" style="stroke-width: 0.72; stroke-opacity: 0.85; stroke: rgb(80, 80, 80);"></path><path class="link" marker-end="" d="M666.5,820.5, 847.5,595" style="stroke-width: 0.72; stroke-opacity: 0.85; stroke: rgb(80, 80, 80);"></path><path class="link" marker-end="" d="M666.5,820.5, 847.5,636" style="stroke-width: 0.72; stroke-opacity: 0.85; stroke: rgb(80, 80, 80);"></path><path class="link" marker-end="" d="M666.5,820.5, 847.5,677" style="stroke-width: 0.72; stroke-opacity: 0.85; stroke: rgb(80, 80, 80);"></path><path class="link" marker-end="" d="M666.5,820.5, 847.5,718" style="stroke-width: 0.72; stroke-opacity: 0.85; stroke: rgb(80, 80, 80);"></path><path class="link" marker-end="" d="M847.5,554, 1028.5,636" style="stroke-width: 0.72; stroke-opacity: 0.85; stroke: rgb(80, 80, 80);"></path><path class="link" marker-end="" d="M847.5,595, 1028.5,636" style="stroke-width: 0.72; stroke-opacity: 0.85; stroke: rgb(80, 80, 80);"></path><path class="link" marker-end="" d="M847.5,636, 1028.5,636" style="stroke-width: 0.72; stroke-opacity: 0.85; stroke: rgb(80, 80, 80);"></path><path class="link" marker-end="" d="M847.5,677, 1028.5,636" style="stroke-width: 0.72; stroke-opacity: 0.85; stroke: rgb(80, 80, 80);"></path><path class="link" marker-end="" d="M847.5,718, 1028.5,636" style="stroke-width: 0.72; stroke-opacity: 0.85; stroke: rgb(80, 80, 80);"></path><circle r="10.5" class="node" id="0_0" cx="666.5" cy="451.5" style="fill: rgb(243, 241, 241); stroke: rgb(32, 29, 29);"></circle><circle r="10.5" class="node" id="0_1" cx="666.5" cy="492.5" style="fill: rgb(243, 241, 241); stroke: rgb(32, 29, 29);"></circle><circle r="10.5" class="node" id="0_2" cx="666.5" cy="533.5" style="fill: rgb(243, 241, 241); stroke: rgb(32, 29, 29);"></circle><circle r="10.5" class="node" id="0_3" cx="666.5" cy="574.5" style="fill: rgb(243, 241, 241); stroke: rgb(32, 29, 29);"></circle><circle r="10.5" class="node" id="0_4" cx="666.5" cy="615.5" style="fill: rgb(243, 241, 241); stroke: rgb(32, 29, 29);"></circle><circle r="10.5" class="node" id="0_5" cx="666.5" cy="656.5" style="fill: rgb(243, 241, 241); stroke: rgb(32, 29, 29);"></circle><circle r="10.5" class="node" id="0_6" cx="666.5" cy="697.5" style="fill: rgb(243, 241, 241); stroke: rgb(32, 29, 29);"></circle><circle r="10.5" class="node" id="0_7" cx="666.5" cy="738.5" style="fill: rgb(243, 241, 241); stroke: rgb(32, 29, 29);"></circle><circle r="10.5" class="node" id="0_8" cx="666.5" cy="779.5" style="fill: rgb(243, 241, 241); stroke: rgb(32, 29, 29);"></circle><circle r="10.5" class="node" id="0_9" cx="666.5" cy="820.5" style="fill: rgb(243, 241, 241); stroke: rgb(32, 29, 29);"></circle><circle r="10.5" class="node" id="1_0" cx="847.5" cy="554" style="fill: rgb(243, 241, 241); stroke: rgb(32, 29, 29);"></circle><circle r="10.5" class="node" id="1_1" cx="847.5" cy="595" style="fill: rgb(243, 241, 241); stroke: rgb(32, 29, 29);"></circle><circle r="10.5" class="node" id="1_2" cx="847.5" cy="636" style="fill: rgb(243, 241, 241); stroke: rgb(32, 29, 29);"></circle><circle r="10.5" class="node" id="1_3" cx="847.5" cy="677" style="fill: rgb(243, 241, 241); stroke: rgb(32, 29, 29);"></circle><circle r="10.5" class="node" id="1_4" cx="847.5" cy="718" style="fill: rgb(243, 241, 241); stroke: rgb(32, 29, 29);"></circle><text class="text" dy=".35em" x="631.5" y="861.5" style="font-size: 12px;">Input Layer ∈ ℝ¹⁰</text><text class="text" dy=".35em" x="812.5" y="861.5" style="font-size: 12px;">Hidden Layer ∈ ℝ⁵</text><circle r="10.5" class="node" id="2_0" cx="1028.5" cy="636" style="fill: rgb(243, 241, 241); stroke: rgb(32, 29, 29);"></circle><text class="text" dy=".35em" x="993.5" y="861.5" style="font-size: 12px;">Output Layer ∈ ℝ¹</text></g><defs><marker id="arrow" viewBox="0 -5 10 10" markerWidth="7" markerHeight="7" orient="auto" refX="41.4"><path d="M0,-5L10,0L0,5" style="stroke: rgb(80, 80, 80); fill: none;"></path></marker></defs></svg>